<?xml version="1.0" encoding="UTF-8" standalone="no"?>
<!DOCTYPE svg PUBLIC "-//W3C//DTD SVG 1.1//EN"
 "http://www.w3.org/Graphics/SVG/1.1/DTD/svg11.dtd">
<!-- Generated by graphviz version 12.1.2 (20240928.0832)
 -->
<!-- Title: move_base Pages: 1 -->
<svg width="551pt" height="188pt"
 viewBox="0.00 0.00 550.55 188.00" xmlns="http://www.w3.org/2000/svg" xmlns:xlink="http://www.w3.org/1999/xlink">
<g id="graph0" class="graph" transform="scale(1 1) rotate(0) translate(4 184)">
<title>move_base</title>
<polygon fill="white" stroke="none" points="-4,4 -4,-184 546.55,-184 546.55,4 -4,4"/>
<!-- move_base -->
<g id="node1" class="node">
<title>move_base</title>
<polygon fill="cyan" stroke="black" points="273.4,-154.54 273.4,-169.46 247.51,-180 210.9,-180 185.01,-169.46 185.01,-154.54 210.9,-144 247.51,-144 273.4,-154.54"/>
<text text-anchor="middle" x="229.21" y="-158.3" font-family="Times,serif" font-size="11.00">move_base</text>
</g>
<!-- navigate -->
<g id="node2" class="node">
<title>navigate</title>
<ellipse fill="gray" stroke="black" cx="186.21" cy="-90" rx="33.35" ry="18"/>
<text text-anchor="middle" x="186.21" y="-86.3" font-family="Times,serif" font-size="11.00">navigate</text>
</g>
<!-- move_base&#45;&gt;navigate -->
<g id="edge1" class="edge">
<title>move_base&#45;&gt;navigate</title>
<path fill="none" stroke="black" d="M218.58,-143.7C213.66,-135.7 207.72,-126.02 202.27,-117.15"/>
<polygon fill="black" stroke="black" points="205.43,-115.6 197.21,-108.91 199.46,-119.26 205.43,-115.6"/>
</g>
<!-- Recover -->
<g id="node3" class="node">
<title>Recover</title>
<polygon fill="cyan" stroke="black" points="309.31,-82.54 309.31,-97.46 288.16,-108 258.26,-108 237.11,-97.46 237.11,-82.54 258.26,-72 288.16,-72 309.31,-82.54"/>
<text text-anchor="middle" x="273.21" y="-86.3" font-family="Times,serif" font-size="11.00">Recover</text>
</g>
<!-- move_base&#45;&gt;Recover -->
<g id="edge2" class="edge">
<title>move_base&#45;&gt;Recover</title>
<path fill="none" stroke="black" d="M240.08,-143.7C244.99,-135.9 250.89,-126.51 256.34,-117.83"/>
<polygon fill="black" stroke="black" points="259.29,-119.71 261.65,-109.39 253.37,-115.99 259.29,-119.71"/>
</g>
<!-- Conservative Reset -->
<g id="node4" class="node">
<title>Conservative Reset</title>
<ellipse fill="gray" stroke="black" cx="64.21" cy="-18" rx="64.21" ry="18"/>
<text text-anchor="middle" x="64.21" y="-14.3" font-family="Times,serif" font-size="11.00">Conservative Reset</text>
</g>
<!-- Recover&#45;&gt;Conservative Reset -->
<g id="edge3" class="edge">
<title>Recover&#45;&gt;Conservative Reset</title>
<path fill="none" stroke="black" d="M245.2,-78.18C239.59,-76.08 233.73,-73.93 228.21,-72 191.33,-59.08 149.39,-45.55 117.16,-35.39"/>
<polygon fill="black" stroke="black" points="118.22,-32.06 107.63,-32.4 116.12,-38.74 118.22,-32.06"/>
</g>
<!-- Clearing Rotation -->
<g id="node5" class="node">
<title>Clearing Rotation</title>
<ellipse fill="gray" stroke="black" cx="205.21" cy="-18" rx="59.07" ry="18"/>
<text text-anchor="middle" x="205.21" y="-14.3" font-family="Times,serif" font-size="11.00">Clearing Rotation</text>
</g>
<!-- Recover&#45;&gt;Clearing Rotation -->
<g id="edge4" class="edge">
<title>Recover&#45;&gt;Clearing Rotation</title>
<path fill="none" stroke="black" d="M257.09,-72.41C248.71,-63.78 238.3,-53.06 229.01,-43.5"/>
<polygon fill="black" stroke="black" points="231.74,-41.29 222.26,-36.56 226.72,-46.17 231.74,-41.29"/>
</g>
<!-- Aggressive Reset -->
<g id="node6" class="node">
<title>Aggressive Reset</title>
<ellipse fill="gray" stroke="black" cx="341.21" cy="-18" rx="59.07" ry="18"/>
<text text-anchor="middle" x="341.21" y="-14.3" font-family="Times,serif" font-size="11.00">Aggressive Reset</text>
</g>
<!-- Recover&#45;&gt;Aggressive Reset -->
<g id="edge5" class="edge">
<title>Recover&#45;&gt;Aggressive Reset</title>
<path fill="none" stroke="black" d="M289.32,-72.41C297.71,-63.78 308.12,-53.06 317.41,-43.5"/>
<polygon fill="black" stroke="black" points="319.7,-46.17 324.15,-36.56 314.68,-41.29 319.7,-46.17"/>
</g>
<!-- Clearing Rotation* -->
<g id="node7" class="node">
<title>Clearing Rotation*</title>
<ellipse fill="gray" stroke="black" cx="480.21" cy="-18" rx="62.34" ry="18"/>
<text text-anchor="middle" x="480.21" y="-14.3" font-family="Times,serif" font-size="11.00">Clearing Rotation*</text>
</g>
<!-- Recover&#45;&gt;Clearing Rotation* -->
<g id="edge6" class="edge">
<title>Recover&#45;&gt;Clearing Rotation*</title>
<path fill="none" stroke="black" d="M302.87,-78.97C335.97,-67.77 390.12,-49.47 429.88,-36.02"/>
<polygon fill="black" stroke="black" points="430.9,-39.37 439.25,-32.85 428.66,-32.74 430.9,-39.37"/>
</g>
</g>
</svg>
